<?xml version="1.0" standalone="no"?>
<!DOCTYPE svg PUBLIC "-//W3C//DTD SVG 20010904//EN"
 "http://www.w3.org/TR/2001/REC-SVG-20010904/DTD/svg10.dtd">
<svg version="1.0" xmlns="http://www.w3.org/2000/svg"
 width="500.000000pt" height="500.000000pt" viewBox="0 0 500.000000 500.000000"
 preserveAspectRatio="xMidYMid meet">

<g transform="translate(0.000000,500.000000) scale(0.100000,-0.100000)"
fill="#fc7b03" stroke="none">
<path d="M1265 3084 c-33 -7 -82 -20 -110 -28 -35 -11 -51 -12 -56 -4 -9 14
-39 3 -39 -15 0 -8 -28 -29 -62 -47 -112 -60 -238 -172 -238 -213 0 -25 18
-57 44 -79 26 -22 40 -22 61 -2 14 15 14 17 -1 28 -14 11 -13 15 14 41 17 16
29 32 26 36 -2 4 6 10 19 13 12 3 36 17 52 31 29 26 29 26 2 9 -15 -9 -30 -14
-34 -10 -3 3 -1 6 5 6 7 0 12 6 12 14 0 13 45 15 57 2 3 -3 0 -29 -7 -57 -7
-29 -14 -60 -15 -68 -1 -16 -2 -20 -25 -81 -6 -19 -16 -53 -20 -75 -4 -22 -15
-69 -24 -104 -10 -35 -19 -77 -21 -92 -2 -16 -6 -33 -9 -38 -12 -19 -36 -155
-46 -260 -8 -87 -8 -115 2 -132 14 -23 82 -62 92 -52 10 10 7 53 -4 53 -5 0
-10 16 -10 36 0 19 -5 45 -11 56 -8 15 -8 19 0 14 14 -9 17 0 36 104 8 47 21
113 28 146 11 51 11 61 0 57 -7 -3 -13 0 -13 6 0 6 6 11 14 11 14 0 22 16 31
57 2 10 20 81 40 158 20 77 46 178 57 225 13 52 28 92 40 102 11 9 17 22 13
27 -3 6 -2 11 4 11 5 0 11 -5 13 -10 2 -7 13 -7 33 0 17 6 49 15 73 21 23 5
40 14 37 19 -4 6 -2 10 4 10 5 0 11 -4 13 -8 2 -5 45 -7 95 -4 51 2 90 8 87
13 -3 5 0 9 5 9 6 0 11 -4 11 -9 0 -6 21 -16 46 -23 69 -19 75 -36 40 -104
-16 -31 -50 -75 -75 -99 -98 -92 -113 -105 -123 -105 -6 0 -18 -8 -27 -18 -9
-10 -43 -35 -76 -55 -33 -20 -73 -48 -89 -62 -16 -14 -35 -25 -43 -25 -7 0
-13 -4 -13 -10 0 -5 -7 -10 -15 -10 -8 0 -15 -4 -15 -9 0 -5 -13 -12 -30 -16
-16 -4 -30 -11 -30 -16 0 -5 -3 -8 -7 -8 -5 1 -18 1 -30 0 -27 -1 -35 -39 -13
-61 8 -9 23 -27 32 -40 l16 -25 76 39 c42 22 85 48 96 58 10 10 22 18 25 18
15 0 154 104 149 111 -3 5 3 9 14 9 25 0 34 10 21 26 -7 9 -5 18 8 33 9 12 22
21 27 21 5 0 -1 -11 -13 -24 -16 -17 -19 -26 -11 -31 7 -4 18 2 26 14 8 12 22
21 30 21 8 0 12 5 9 10 -3 6 1 10 9 10 9 0 16 8 16 18 0 13 2 14 9 4 6 -10 13
-6 26 15 10 15 27 36 37 47 17 19 22 31 19 49 -1 5 3 6 9 2 5 -3 17 11 26 32
9 21 21 48 27 60 21 47 -48 156 -126 199 -48 27 -61 29 -162 30 -60 1 -137 -4
-170 -12z m215 -24 c8 -5 12 -11 10 -14 -3 -2 -14 2 -24 10 -22 15 -10 19 14
4z m-85 -28 c-3 -3 -11 0 -18 7 -9 10 -8 11 6 5 10 -3 15 -9 12 -12z m-85 -36
c0 -17 -26 -3 -27 14 -2 18 0 18 13 6 8 -8 14 -17 14 -20z m17 28 c-3 -3 -12
-4 -19 -1 -8 3 -5 6 6 6 11 1 17 -2 13 -5z m133 -11 c-47 -7 -89 -8 -82 -2 10
10 53 16 77 10 13 -3 15 -6 5 -8z m-197 -30 c-7 -2 -19 -2 -25 0 -7 3 -2 5 12
5 14 0 19 -2 13 -5z m339 -235 c-7 -7 -12 -8 -12 -2 0 14 12 26 19 19 2 -3 -1
-11 -7 -17z m-26 -10 c4 -7 3 -8 -4 -4 -7 4 -12 2 -12 -3 0 -6 -4 -11 -10 -11
-5 0 -7 7 -4 15 7 18 20 19 30 3z m-1 -48 c3 -5 1 -10 -4 -10 -6 0 -11 5 -11
10 0 6 2 10 4 10 3 0 8 -4 11 -10z m-85 -10 c0 -5 -5 -10 -11 -10 -5 0 -7 5
-4 10 3 6 8 10 11 10 2 0 4 -4 4 -10z m30 -3 c0 -8 -12 -19 -27 -26 l-26 -12
24 25 c28 30 29 30 29 13z m-70 -37 c-12 -8 -12 -10 -1 -10 10 0 11 -3 2 -14
-7 -8 -21 -12 -32 -9 -13 4 -19 1 -17 -7 2 -7 -3 -15 -11 -18 -8 -3 -11 0 -7
7 4 6 1 11 -6 11 -7 1 -2 7 12 15 14 8 21 15 15 15 -5 1 4 7 20 14 32 14 49
11 25 -4z m-400 -14 c0 -3 -4 -8 -10 -11 -5 -3 -10 -1 -10 4 0 6 5 11 10 11 6
0 10 -2 10 -4z m-17 -63 c-5 -11 -8 -12 -13 -2 -5 7 -6 19 -3 26 5 11 8 12 13
2 5 -7 6 -19 3 -26z m407 21 c0 -10 -28 -34 -39 -34 -16 0 -13 11 7 26 18 14
32 18 32 8z m-67 -25 c-6 -6 -9 -17 -7 -24 3 -7 -2 -15 -12 -19 -12 -5 -15 -2
-10 11 6 15 5 16 -5 6 -7 -7 -18 -13 -25 -13 -13 0 -13 25 1 37 4 4 5 2 1 -4
-10 -17 4 -16 28 2 23 18 45 20 29 4z m-353 -39 c-6 -11 -12 -20 -14 -20 -2 0
-2 9 1 20 3 11 9 20 15 20 5 0 4 -9 -2 -20z m210 -30 c-8 -5 -17 -7 -19 -4 -3
3 1 9 9 14 8 5 17 7 19 4 3 -3 -1 -9 -9 -14z m-220 -6 c0 -2 -7 -4 -15 -4 -8
0 -15 4 -15 10 0 5 7 7 15 4 8 -4 15 -8 15 -10z m300 4 c0 -4 -5 -8 -11 -8 -5
0 -7 -6 -3 -12 4 -7 4 -10 -1 -6 -10 9 -65 -19 -65 -34 0 -6 -3 -8 -7 -4 -5 4
8 21 27 37 19 16 26 26 16 22 -13 -4 -17 -3 -12 5 8 13 56 12 56 0z m30 2 c0
-5 -5 -10 -11 -10 -5 0 -7 5 -4 10 3 6 8 10 11 10 2 0 4 -4 4 -10z m-105 -20
c-3 -5 -12 -10 -18 -10 -7 0 -6 4 3 10 19 12 23 12 15 0z m-65 -9 c0 -6 -4
-13 -10 -16 -5 -3 -10 1 -10 9 0 9 5 16 10 16 6 0 10 -4 10 -9z m-170 -11 c0
-5 -5 -10 -11 -10 -5 0 -7 5 -4 10 3 6 8 10 11 10 2 0 4 -4 4 -10z m197 -16
c-3 -3 -12 -4 -19 -1 -8 3 -5 6 6 6 11 1 17 -2 13 -5z m-37 -26 c0 -18 -2 -20
-9 -8 -6 8 -7 18 -5 22 9 14 14 9 14 -14z m-190 -90 c0 -18 -2 -20 -9 -8 -6 8
-7 18 -5 22 9 14 14 9 14 -14z m-6 -43 c-4 -8 -8 -15 -10 -15 -2 0 -4 7 -4 15
0 8 4 15 10 15 5 0 7 -7 4 -15z m-20 -40 c3 -8 1 -15 -4 -15 -6 0 -10 7 -10
15 0 8 2 15 4 15 2 0 6 -7 10 -15z m-4 -50 c0 -8 -2 -15 -4 -15 -2 0 -6 7 -10
15 -3 8 -1 15 4 15 6 0 10 -7 10 -15z m0 -45 c0 -5 -4 -10 -10 -10 -5 0 -10 5
-10 10 0 6 5 10 10 10 6 0 10 -4 10 -10z"/>
<path d="M2017 3089 c-9 -6 -15 -14 -12 -19 3 -5 -4 -14 -15 -20 -11 -6 -20
-15 -20 -21 0 -14 -31 -44 -46 -44 -13 0 -78 -71 -107 -117 -12 -20 -13 -28
-4 -31 9 -3 7 -10 -5 -23 -10 -10 -18 -13 -18 -7 0 6 6 14 13 16 7 3 8 6 1 6
-15 1 -57 -64 -75 -114 -7 -22 -21 -51 -31 -64 -10 -13 -18 -30 -18 -37 0 -8
-7 -14 -15 -14 -11 0 -13 -7 -9 -29 5 -21 0 -34 -16 -49 -15 -14 -20 -27 -16
-38 4 -10 2 -20 -4 -24 -7 -5 -8 -15 -1 -32 8 -21 6 -29 -10 -44 -15 -13 -18
-25 -13 -50 3 -18 1 -34 -5 -38 -24 -15 -4 -168 30 -240 48 -102 163 -184 196
-140 7 10 13 12 13 6 0 -24 52 -8 90 27 16 16 15 15 -37 -6 -7 -3 -13 0 -13 6
0 6 7 11 15 11 9 0 12 6 9 15 -4 8 -1 15 5 15 6 0 11 -5 11 -11 0 -5 4 -8 10
-4 5 3 6 13 3 22 -4 10 -2 14 4 10 6 -4 13 0 16 8 4 10 1 12 -10 8 -11 -5 -14
-3 -9 6 5 7 17 11 27 8 10 -3 26 1 36 9 17 13 17 14 -2 8 -18 -5 -17 -3 4 15
25 23 47 28 35 9 -4 -7 -3 -8 4 -4 6 4 9 13 6 20 -7 19 22 28 36 10 9 -10 9
-14 1 -14 -6 0 -11 -5 -11 -11 0 -8 5 -8 15 1 12 10 13 16 4 26 -8 10 -8 14
-1 14 6 0 9 6 6 13 -2 7 13 23 36 37 23 14 47 30 54 37 9 8 17 8 23 2 6 -6 9
-2 8 13 -1 13 6 31 16 41 10 10 16 25 13 35 -4 12 -3 13 3 4 12 -17 48 21 38
40 -3 7 1 4 9 -6 14 -17 16 -17 16 -3 0 9 10 25 22 37 31 29 10 49 -26 25 -37
-24 -52 -55 -35 -67 10 -6 7 -7 -9 -3 -17 5 -31 -2 -57 -26 -19 -18 -32 -35
-30 -37 2 -3 -8 -12 -24 -21 -16 -9 -68 -47 -116 -86 -151 -121 -229 -154
-308 -131 -36 10 -44 18 -55 51 -17 48 -10 180 13 270 28 108 59 205 67 205 5
0 8 6 8 13 0 10 30 71 87 180 8 15 18 27 23 27 5 0 11 9 15 19 3 11 36 51 73
89 57 59 77 73 125 87 32 9 63 15 69 13 20 -7 18 -70 -3 -110 -10 -20 -19 -40
-19 -43 0 -13 29 -3 46 16 10 12 29 25 42 30 27 10 30 59 6 104 -9 17 -23 42
-31 57 -23 44 -61 68 -107 68 -22 0 -49 -5 -59 -11z m-112 -159 c-10 -11 -25
-20 -34 -19 -14 0 -14 1 -1 6 8 3 19 12 23 19 4 8 13 14 19 14 6 0 3 -9 -7
-20z m-63 -82 c-7 -7 -12 -8 -12 -2 0 14 12 26 19 19 2 -3 -1 -11 -7 -17z
m-12 -88 c0 -5 -5 -10 -11 -10 -5 0 -7 5 -4 10 3 6 8 10 11 10 2 0 4 -4 4 -10z
m-80 -150 c0 -5 -4 -10 -10 -10 -5 0 -10 5 -10 10 0 6 5 10 10 10 6 0 10 -4
10 -10z m-80 -214 c0 -2 -7 -9 -15 -16 -13 -11 -14 -10 -9 4 5 14 24 23 24 12z
m533 -130 c-10 -13 -20 -22 -22 -20 -4 4 29 44 36 44 2 0 -4 -11 -14 -24z"/>
<path d="M2620 2501 c0 -74 4 -121 10 -121 6 0 10 11 10 25 0 18 5 25 19 25
33 0 42 24 39 107 l-3 78 -37 3 -38 3 0 -120z m55 28 c0 -50 -3 -64 -15 -64
-11 0 -16 14 -18 54 -4 61 3 84 21 78 8 -2 12 -25 12 -68z"/>
<path d="M2730 2501 c0 -74 4 -121 10 -121 6 0 10 11 10 25 0 14 4 25 10 25 5
0 12 -11 16 -25 3 -14 12 -25 18 -25 10 0 13 31 12 118 l-1 117 -37 3 -38 3 0
-120z m58 26 c3 -62 1 -67 -18 -67 -18 0 -20 6 -20 63 0 35 3 67 7 71 17 17
28 -6 31 -67z"/>
<path d="M2852 2608 c-16 -16 -16 -200 0 -216 18 -18 56 -14 68 7 5 11 10 56
10 101 0 45 -5 90 -10 101 -12 21 -50 25 -68 7z m48 -109 c0 -72 -3 -89 -15
-89 -12 0 -15 16 -15 88 0 49 3 92 6 95 17 17 24 -11 24 -94z"/>
<path d="M2950 2500 c0 -100 3 -120 15 -120 12 0 15 18 16 93 l2 92 15 -92
c10 -63 20 -93 29 -93 7 0 13 1 13 3 0 16 31 171 35 175 3 3 5 -36 5 -86 0
-55 4 -92 10 -92 6 0 10 47 10 120 l0 120 -24 0 c-22 0 -26 -6 -32 -47 -13
-87 -21 -93 -29 -20 -7 66 -8 67 -36 67 l-29 0 0 -120z"/>
<path d="M3130 2501 c0 -74 4 -121 10 -121 6 0 10 11 10 25 0 18 5 25 19 25
33 0 42 24 39 107 l-3 78 -37 3 -38 3 0 -120z m55 28 c0 -50 -3 -64 -15 -64
-11 0 -16 14 -18 54 -4 61 3 84 21 78 8 -2 12 -25 12 -68z"/>
<path d="M3240 2610 c0 -5 9 -10 20 -10 19 0 20 -7 20 -110 0 -91 3 -110 15
-110 12 0 15 18 15 106 0 97 2 106 20 111 39 10 19 23 -35 23 -30 0 -55 -4
-55 -10z"/>
<path d="M3450 2594 c-16 -41 -12 -166 6 -192 17 -24 43 -29 62 -10 17 17 15
48 -3 48 -8 0 -15 -7 -15 -15 0 -8 -7 -15 -15 -15 -12 0 -15 17 -15 90 0 73 3
90 15 90 8 0 15 -4 15 -10 0 -5 7 -10 15 -10 18 0 20 21 3 38 -21 21 -58 14
-68 -14z"/>
<path d="M3550 2500 l0 -120 40 0 c29 0 40 4 40 15 0 9 -9 15 -25 15 -23 0
-25 3 -25 50 0 47 2 50 25 50 16 0 25 6 25 15 0 9 -10 15 -26 15 -22 0 -25 4
-22 28 2 19 9 28 26 30 38 6 24 22 -18 22 l-40 0 0 -120z"/>
<path d="M3650 2500 c0 -100 3 -120 15 -120 12 0 15 17 16 88 1 95 12 81 25
-30 6 -53 9 -58 30 -58 24 0 24 0 24 120 0 66 -4 120 -9 120 -4 0 -12 -37 -16
-82 l-8 -83 -13 80 c-7 44 -13 81 -13 83 -1 1 -12 2 -26 2 l-25 0 0 -120z"/>
<path d="M3790 2610 c0 -5 9 -10 20 -10 19 0 20 -7 20 -110 0 -91 3 -110 15
-110 12 0 15 18 15 106 0 97 2 106 20 111 39 10 19 23 -35 23 -30 0 -55 -4
-55 -10z"/>
<path d="M3920 2500 c0 -98 3 -120 14 -120 8 0 16 12 18 28 l4 27 14 -27 c18
-38 43 -38 29 -1 -7 18 -6 30 1 37 14 14 13 149 -2 164 -7 7 -27 12 -45 12
l-33 0 0 -120z m60 24 c0 -50 -3 -64 -15 -64 -12 0 -15 14 -15 63 0 35 3 67 6
70 16 15 24 -9 24 -69z"/>
<path d="M4065 2608 c-2 -7 -9 -49 -15 -93 -6 -44 -13 -92 -16 -107 -4 -20 -2
-28 9 -28 9 0 16 14 20 41 3 22 8 43 11 46 14 14 35 -10 41 -46 4 -26 12 -41
22 -41 9 0 13 6 9 18 -2 9 -12 63 -22 120 -15 86 -20 102 -36 102 -10 0 -21
-6 -23 -12z m35 -86 c0 -20 -4 -32 -11 -30 -6 2 -10 7 -10 11 1 4 1 24 1 45 0
27 3 33 10 22 5 -8 10 -30 10 -48z"/>
<path d="M4170 2500 l0 -120 40 0 c29 0 40 4 40 15 0 9 -9 15 -25 15 l-25 0 0
105 c0 87 -3 105 -15 105 -12 0 -15 -20 -15 -120z"/>
<path d="M2361 2460 c-22 -18 -32 -34 -28 -44 7 -19 31 -22 25 -4 -3 7 4 20
15 29 11 9 21 23 23 32 1 10 2 17 1 17 -1 -1 -17 -14 -36 -30z"/>
<path d="M1600 2410 c0 -5 5 -10 11 -10 5 0 7 5 4 10 -3 6 -8 10 -11 10 -2 0
-4 -4 -4 -10z"/>
<path d="M2126 2095 c-11 -8 -15 -15 -10 -15 6 0 19 7 30 15 10 8 15 14 9 14
-5 0 -19 -6 -29 -14z"/>
<path d="M2094 2072 c3 -6 -2 -13 -11 -15 -16 -4 -16 -5 -1 -6 21 -1 32 15 17
25 -7 4 -9 3 -5 -4z"/>
<path d="M2008 2013 c-9 -2 -19 -10 -22 -18 -6 -16 16 -11 49 12 20 13 9 16
-27 6z"/>
<path d="M1947 1973 c-10 -9 -9 -23 2 -23 5 0 11 7 15 15 5 15 -5 20 -17 8z"/>
</g>
</svg>
